# xmcd
#
# Track frame offsets:
#	150
#	13890
#	33142
#	50866
#	66715
#	80525
#	86177
#	99260
#	120427
#	133843
#	153164
#	174962
#	192423
#	211655
#	228647
#	248740
#	269323
#	282581
#	302984
#
# Disc length: 4261 seconds
#
# Revision: 0
# Processed by: cddbd v1.5PL3 Copyright (c) Steve Scherf et al.
# Submitted via: dBpowerAMP V4.0
#
DISCID=1110a313
DTITLE=Mike McClure Band - Everythingupsidedown
DYEAR=1900
DGENRE=Texas Country
TTITLE0=Change #1
TTITLE1=Moon Is Almost Full
TTITLE2=Witches
TTITLE3=Out In The Fields
TTITLE4=She Gets To You
TTITLE5=Intro (Mis Llaves)
TTITLE6=Open My Door
TTITLE7=The Void
TTITLE8=Back Out Your Door
TTITLE9=You Don't Know Me Anymore
TTITLE10=The Streets of Aragon
TTITLE11=Don't You Say Anything
TTITLE12=Sweet Mother Mary
TTITLE13=Angelina
TTITLE14=Skies Are Turning Red
TTITLE15=Lay Your Head Down
TTITLE16=Everything Upside Down
TTITLE17=Just Not Good Enough
TTITLE18=Wild Child
EXTD=TEXAS COUNTRY
EXTT0=
EXTT1=
EXTT2=
EXTT3=
EXTT4=
EXTT5=
EXTT6=
EXTT7=
EXTT8=
EXTT9=
EXTT10=
EXTT11=
EXTT12=
EXTT13=
EXTT14=
EXTT15=
EXTT16=
EXTT17=
EXTT18=
PLAYORDER=
